<svg id="svg" version="1.1" xmlns="http://www.w3.org/2000/svg" xmlns:xlink="http://www.w3.org/1999/xlink" width="400" height="400" viewBox="0, 0, 400,400"><g id="svgg"><path id="path0" d="M198.857 46.128 C 189.813 47.902,182.240 53.838,179.074 61.633 L 178.166 63.867 166.525 64.074 C 152.593 64.321,151.834 64.501,147.821 68.521 C 144.424 71.923,144.141 72.965,144.141 82.079 L 144.141 89.410 129.395 89.533 C 114.973 89.652,114.598 89.675,112.367 90.572 C 107.072 92.700,102.699 96.926,100.723 101.826 L 99.805 104.102 99.701 216.602 C 99.599 327.626,99.608 329.135,100.369 331.641 C 102.232 337.777,107.074 342.646,113.197 344.537 C 116.540 345.570,292.193 345.770,296.042 344.745 C 302.920 342.914,308.311 337.364,309.945 330.432 C 310.702 327.224,310.866 108.602,310.115 105.000 C 309.022 99.758,304.683 93.975,300.103 91.654 C 296.174 89.663,294.330 89.465,279.625 89.459 L 266.086 89.453 265.953 81.738 C 265.800 72.822,265.256 70.992,261.879 68.019 C 257.915 64.530,255.585 64.063,242.168 64.063 C 233.462 64.063,231.641 63.969,231.641 63.522 C 231.641 63.224,230.917 61.535,230.032 59.767 C 224.906 49.525,211.480 43.651,198.857 46.128 M210.964 55.708 C 217.757 57.723,222.280 62.373,222.916 67.992 C 223.541 73.517,223.300 73.438,239.357 73.438 C 253.734 73.438,254.684 73.552,256.004 75.436 C 256.971 76.817,256.971 110.683,256.004 112.064 C 254.551 114.138,256.471 114.062,204.883 114.063 C 153.598 114.063,154.979 114.114,153.938 112.168 C 153.201 110.792,153.365 76.170,154.113 75.102 C 155.144 73.631,157.014 73.442,170.587 73.440 C 186.525 73.437,186.453 73.460,187.115 68.118 C 188.281 58.718,200.202 52.515,210.964 55.708 M144.197 106.152 C 144.388 116.080,145.806 118.962,151.906 121.822 L 154.102 122.852 205.078 122.852 L 256.055 122.852 257.926 121.980 C 263.984 119.158,265.625 115.715,265.625 105.831 L 265.625 98.800 279.785 98.912 C 296.634 99.045,297.635 99.320,300.220 104.530 C 301.268 106.643,301.625 326.167,300.586 329.298 C 299.770 331.755,298.031 333.728,295.627 334.926 L 293.597 335.937 205.099 335.934 L 116.602 335.930 114.627 335.010 C 112.317 333.935,110.080 331.495,109.438 329.352 C 109.098 328.219,108.984 300.015,108.984 217.121 L 108.984 106.403 109.996 104.373 C 112.554 99.239,113.829 98.897,130.524 98.859 L 144.056 98.828 144.197 106.152 M137.798 145.143 C 134.326 147.027,135.092 152.397,138.994 153.527 C 141.890 154.365,271.108 153.852,272.413 152.997 C 275.112 151.229,275.055 147.270,272.306 145.423 L 270.978 144.531 204.923 144.547 C 147.258 144.561,138.731 144.636,137.798 145.143 M136.875 185.703 C 135.367 187.211,135.114 189.045,136.139 191.028 C 137.437 193.539,132.406 193.376,205.424 193.265 L 271.812 193.164 272.789 192.247 C 275.134 190.043,275.014 186.649,272.537 185.139 C 271.313 184.393,270.013 184.378,204.746 184.376 L 138.203 184.375 136.875 185.703 M137.798 224.438 C 133.929 226.544,135.332 232.342,139.867 232.990 C 140.821 233.127,170.812 233.186,206.514 233.123 L 271.427 233.008 272.530 232.185 C 274.883 230.428,275.107 227.569,273.071 225.290 L 271.939 224.023 205.403 223.940 C 147.088 223.866,138.735 223.928,137.798 224.438 M138.802 263.707 C 136.057 264.508,134.777 267.690,136.139 270.325 C 137.438 272.836,132.399 272.673,205.488 272.562 L 271.939 272.461 273.071 271.194 C 275.107 268.915,274.883 266.057,272.530 264.300 L 271.427 263.477 205.733 263.411 C 166.468 263.372,139.541 263.491,138.802 263.707 M137.798 303.735 C 135.250 305.122,134.783 308.689,136.875 310.781 L 138.203 312.109 204.746 312.108 C 270.013 312.106,271.313 312.092,272.537 311.345 C 275.014 309.835,275.134 306.441,272.789 304.238 L 271.812 303.320 205.340 303.236 C 147.081 303.163,138.735 303.224,137.798 303.735 " stroke="none" fill="#262625" fill-rule="evenodd"></path><path id="path1" d="M199.915 55.658 C 192.717 57.488,187.870 62.358,187.239 68.395 C 187.027 70.431,186.764 71.092,185.709 72.243 L 184.436 73.633 170.245 73.828 C 155.461 74.032,154.801 74.110,153.915 75.765 C 153.367 76.789,153.369 110.715,153.918 111.740 C 154.994 113.752,152.880 113.672,205.078 113.672 C 256.687 113.672,255.308 113.720,256.007 111.897 C 256.352 110.998,256.298 76.063,255.951 75.563 C 254.780 73.876,254.346 73.828,240.330 73.828 C 223.512 73.828,223.355 73.779,222.668 68.275 C 221.525 59.113,210.460 52.978,199.915 55.658 M114.844 99.841 C 113.075 100.606,111.089 102.522,110.024 104.492 L 109.180 106.055 109.070 216.406 C 108.992 294.517,109.084 327.259,109.383 328.474 C 110.014 331.040,111.741 333.266,114.122 334.585 L 116.211 335.742 205.078 335.742 L 293.945 335.742 295.545 334.886 C 297.407 333.890,299.478 331.660,300.244 329.826 C 300.696 328.746,300.781 310.812,300.781 217.391 L 300.781 106.241 299.959 104.493 C 299.041 102.538,297.002 100.567,295.060 99.756 C 294.052 99.334,290.794 99.219,279.933 99.219 L 266.090 99.219 265.947 106.348 C 265.731 117.057,263.033 121.179,255.033 123.023 C 251.896 123.747,157.298 123.566,154.477 122.831 C 146.665 120.797,144.391 117.188,144.215 106.543 L 144.093 99.219 130.152 99.234 C 118.591 99.247,115.978 99.350,114.844 99.841 M272.278 145.124 C 275.349 146.712,275.332 151.447,272.250 153.267 C 270.370 154.378,139.403 154.230,137.574 153.115 C 134.809 151.429,134.597 147.682,137.146 145.537 L 138.341 144.531 204.737 144.531 C 263.321 144.531,271.267 144.601,272.278 145.124 M271.860 184.563 C 275.626 186.510,275.385 191.892,271.471 193.240 C 269.641 193.870,140.456 193.962,138.795 193.335 C 134.779 191.817,134.078 186.907,137.574 184.776 C 139.316 183.714,269.818 183.507,271.860 184.563 M272.278 224.421 C 275.451 226.061,275.299 231.059,272.028 232.611 C 269.778 233.679,139.336 233.486,137.574 232.412 C 134.809 230.726,134.597 226.979,137.146 224.833 L 138.341 223.828 204.737 223.828 C 263.321 223.828,271.267 223.898,272.278 224.421 M273.272 264.936 C 275.311 267.160,274.955 270.400,272.495 272.012 C 271.591 272.604,266.117 272.656,204.857 272.656 L 138.203 272.656 136.898 271.351 C 134.564 269.017,134.811 265.961,137.479 264.163 L 138.797 263.275 205.366 263.376 L 271.935 263.477 273.272 264.936 M271.471 303.245 C 275.385 304.593,275.626 309.974,271.860 311.922 C 269.818 312.978,139.316 312.771,137.574 311.709 C 134.049 309.560,134.860 304.351,138.908 303.140 C 140.769 302.583,269.846 302.685,271.471 303.245 " stroke="none" fill="#e1e3e3" fill-rule="evenodd"></path><path id="path2" d="M189.258 18.240 C 119.602 21.921,56.235 67.921,30.354 133.594 C -2.984 218.187,31.011 314.404,110.156 359.459 C 209.275 415.885,336.329 367.551,373.117 259.422 C 414.808 136.884,319.132 11.378,189.258 18.240 M211.719 46.303 C 220.170 48.262,226.663 53.036,230.032 59.767 C 230.917 61.535,231.641 63.224,231.641 63.522 C 231.641 63.969,233.462 64.063,242.168 64.063 C 255.585 64.063,257.915 64.530,261.879 68.019 C 265.256 70.992,265.800 72.822,265.953 81.738 L 266.086 89.453 279.625 89.459 C 294.330 89.465,296.174 89.663,300.103 91.654 C 304.683 93.975,309.022 99.758,310.115 105.000 C 310.866 108.602,310.702 327.224,309.945 330.432 C 308.311 337.364,302.920 342.914,296.042 344.745 C 292.193 345.770,116.540 345.570,113.197 344.537 C 107.074 342.646,102.232 337.777,100.369 331.641 C 99.608 329.135,99.599 327.626,99.701 216.602 L 99.805 104.102 100.723 101.826 C 102.699 96.926,107.072 92.700,112.367 90.572 C 114.598 89.675,114.973 89.652,129.395 89.533 L 144.141 89.410 144.141 82.079 C 144.141 72.965,144.424 71.923,147.821 68.521 C 151.834 64.501,152.593 64.321,166.525 64.074 L 178.166 63.867 179.074 61.633 C 183.804 49.986,198.280 43.188,211.719 46.303 " stroke="none" fill="#fc6c44" fill-rule="evenodd"></path><path id="path3" d="M127.051 99.120 C 130.220 99.186,135.405 99.186,138.574 99.120 C 141.743 99.055,139.150 99.001,132.813 99.001 C 126.475 99.001,123.882 99.055,127.051 99.120 M265.798 99.332 C 265.691 99.609,265.658 102.641,265.723 106.070 L 265.842 112.305 265.929 105.767 L 266.016 99.229 279.395 99.121 L 292.773 99.013 279.382 98.920 C 268.741 98.847,265.951 98.932,265.798 99.332 M300.974 217.578 C 300.974 278.057,301.019 302.798,301.074 272.559 C 301.129 242.319,301.129 192.837,301.074 162.598 C 301.019 132.358,300.974 157.100,300.974 217.578 M200.323 193.652 C 213.284 193.709,234.378 193.709,247.198 193.652 C 260.018 193.595,249.414 193.548,223.633 193.548 C 197.852 193.548,187.362 193.595,200.323 193.652 M248.366 303.027 C 252.515 303.090,259.195 303.090,263.209 303.027 C 267.223 302.963,263.828 302.911,255.664 302.912 C 247.500 302.912,244.216 302.964,248.366 303.027 " stroke="none" fill="#bbbbbc" fill-rule="evenodd"></path><path id="path4" d="M222.747 68.359 C 222.747 69.111,222.827 69.419,222.926 69.043 C 223.024 68.667,223.024 68.052,222.926 67.676 C 222.827 67.300,222.747 67.607,222.747 68.359 M163.354 73.730 C 166.939 73.794,172.915 73.794,176.635 73.730 C 180.355 73.666,177.422 73.613,170.117 73.613 C 162.813 73.613,159.769 73.665,163.354 73.730 M233.276 73.730 C 236.861 73.794,242.837 73.794,246.557 73.730 C 250.277 73.666,247.344 73.613,240.039 73.613 C 232.734 73.613,229.691 73.665,233.276 73.730 M256.430 93.750 C 256.430 103.525,256.481 107.524,256.543 102.637 C 256.605 97.749,256.605 89.751,256.543 84.863 C 256.481 79.976,256.430 83.975,256.430 93.750 M117.871 99.111 C 118.569 99.197,119.712 99.197,120.410 99.111 C 121.108 99.024,120.537 98.953,119.141 98.953 C 117.744 98.953,117.173 99.024,117.871 99.111 M180.536 113.965 C 193.786 114.022,215.583 114.022,228.974 113.965 C 242.364 113.908,231.523 113.861,204.883 113.861 C 178.242 113.861,167.286 113.908,180.536 113.965 M261.889 119.238 L 260.742 120.508 262.012 119.361 C 262.710 118.729,263.281 118.158,263.281 118.091 C 263.281 117.789,262.959 118.055,261.889 119.238 M180.957 123.340 C 194.224 123.397,215.933 123.397,229.199 123.340 C 242.466 123.283,231.611 123.236,205.078 123.236 C 178.545 123.236,167.690 123.283,180.957 123.340 M171.746 184.277 C 189.830 184.333,219.537 184.333,237.762 184.277 C 255.987 184.221,241.191 184.175,204.883 184.175 C 168.574 184.175,153.663 184.221,171.746 184.277 M149.148 193.652 C 154.373 193.714,162.810 193.714,167.898 193.652 C 172.986 193.590,168.711 193.540,158.398 193.540 C 148.086 193.540,143.923 193.591,149.148 193.652 M164.911 303.027 C 178.805 303.084,201.657 303.084,215.692 303.027 C 229.728 302.970,218.359 302.924,190.430 302.924 C 162.500 302.924,151.017 302.970,164.911 303.027 M171.746 312.402 C 189.830 312.458,219.537 312.458,237.762 312.402 C 255.987 312.346,241.191 312.300,204.883 312.300 C 168.574 312.300,153.663 312.346,171.746 312.402 " stroke="none" fill="#a7abaf" fill-rule="evenodd"></path></g></svg>